<?xml version="1.0" encoding="utf-8"?>
<!-- Generator: Adobe Illustrator 22.0.0, SVG Export Plug-In . SVG Version: 6.00 Build 0)  -->
<svg version="1.1" id="Слой_1" xmlns="http://www.w3.org/2000/svg" xmlns:xlink="http://www.w3.org/1999/xlink" x="0px" y="0px"
	 viewBox="0 0 93.6 94.8" style="enable-background:new 0 0 93.6 94.8;" xml:space="preserve">
<path d="M46.8,0C21,0,0,21.3,0,47.4s21,47.4,46.8,47.4s46.8-21.3,46.8-47.4S72.6,0,46.8,0z M18.7,70.3v6.6C11,69.4,6.2,59,6.2,47.4
	c0-22.6,18.2-41.1,40.5-41.1s40.5,18.4,40.5,41.1c0,10.1-3.6,19.4-9.7,26.5v-3.7"/>
<g>
	<g>
		<path d="M51.7,59.2c-6.1-2.5-8.6-2.7-9.1-6.6l-0.2,1c-0.2,0.6-0.5,1.2-0.7,1.8c-0.6,1.2-1.1,2.4-1.7,3.5c-1.3,2.3-2.6,4.5-4,6.7
			c0,0.1-0.1,0.1-0.1,0.1c-0.2-0.1-0.4-0.3-0.5-0.4c-0.2-0.3-0.4-0.5-0.6-0.8c-0.8-1.6-1.5-3.3-1.9-5c-0.1-0.3-0.1-0.4-0.3-0.5
			c0.2-0.2,0.4-0.4,0.6-0.5c1-0.7,2-1.4,3-2.2c1.1-0.8,2.2-1.6,3.2-2.5c0.7-0.6,1.4-1.2,1.9-2c0.1-0.2,0.2-0.3,0.3-0.4
			c-0.2-0.4-0.2-1-0.4-1.4c-0.1-0.3-0.2-0.6-0.2-0.9c0-0.4,0-0.7,0-1.1c0.1-0.6,0.1-1.2,0.2-1.9c0.1-0.8,0.2-1.6,0.3-2.4
			c0.1-0.4,0.2-0.9,0.6-1.2c0.2-0.3,0.5-0.5,0.7-0.8c0.2-0.3,0.5-0.5,0.7-0.8c0.5-0.5,0.7-1.2,0.9-1.9c0.2-0.7,0.2-1.4,0.2-2.2
			c0-0.6,0-1.2-0.2-1.8c-0.2-0.4-0.2-0.5-0.6-0.7V34c0-0.2,0-0.4,0-0.5c0-1.1,0-2.1-0.2-3.2c-0.3-1.6-1-2.9-2-4
			c-0.4-0.4-0.8-0.7-1.2-1.1c-0.7-0.5-1.4-1.2-2.1-1.7c-0.5-0.4-0.9-0.7-1.4-1.1c-0.7-0.5-1.5-0.8-2.4-1c-0.8-0.1-1.5-0.2-2.3-0.3
			c-0.6-0.1-1.2-0.1-1.8,0c-0.8,0.1-1.5,0.4-2.2,0.8c-0.1,0-0.2,0.1-0.2,0.2c0.1,0,0.2,0.1,0.3,0.1c0.5,0.2,0.6,0.4,0.3,1
			c-0.2,0.3-0.3,0.5-0.5,0.7c-0.6,0.7-1.2,1.4-1.8,2.1c-0.2,0.4-0.6,0.6-0.9,0.9c-0.5,0.5-0.9,1.2-1.1,1.9c-0.1,0.3-0.2,0.6-0.2,1
			c-0.1,0.7-0.1,1.3,0,2c0.1,0.9,0.2,1.8,0.2,2.7c0,0.4,0,0.7,0,1.1c0,0.1-0.1,0.2-0.1,0.3c-0.1,0-0.1,0-0.2,0
			c-0.3-0.1-0.5,0-0.5,0.4c0,0.3,0,0.5,0.1,0.8c0.1,0.5,0.2,1.2,0.4,1.7c0.2,1,0.6,2,0.9,3c0.1,0.3,0.2,0.6,0.2,0.9
			c0,1.1,0.2,2,0.6,3c0.1,0.1,0.1,0.3,0.2,0.4c0.2,0.5,0.5,1.1,0.8,1.4c0.3,0.4,0.7,0.8,1.1,1.2c0.3,0.4,0.6,0.7,0.9,1.1
			c0.5,0.5,0.7,1.2,0.7,2c0,0.3,0,0.6,0,1c0,0.4,0,0.9,0.1,1.2c0,0.3,0.1,0.5,0.2,0.8c0.2,0.5,0.6,1.1,1,1.5c0.4,0.5,0.9,1,1.4,1.5
			c0.2,0.2,0.3,0.3,0.5,0.4c0.1,0.1,0.2,0.2,0.1,0.4c-0.2,0.1-0.3,0.1-0.5,0.2c-0.4,0.1-0.8,0.4-1,0.8c-0.3,0.5-0.6,1-0.9,1.6
			c-0.2,0.7-0.5,1.3-0.7,2c-0.2,0.4-0.4,1-0.6,1.4c-0.1,0.2-0.2,0.3-0.2,0.4c0,0.1-0.2,0-0.2,0.1c0-0.1,0-0.3,0-0.4
			c0-0.6,0.1-1.3,0.1-1.9c0.1-0.7,0.2-1.5,0.3-2.2c0.1-0.6,0.2-1.2,0.1-1.8C29,58.2,29,57.6,29,57.1c0-0.1,0-0.2-0.1-0.2
			c-0.1,0.1-0.1,0.2-0.2,0.3c-1.1,2.3-3.3,2.6-8.3,5.1c-1,0.5-1.8,1-2.7,1.4c-0.1,0.1-0.2,0.1-0.3,0.2c-0.4,0.2-0.9,0.4-1.3,0.7
			c-0.1,0-0.1,0.1-0.2,0.1c-4.1,2.3-6,5.7-6,12.1l0,0h26.6h25.3c0,0,0-4.7,0-6.6C61.9,68.2,58.7,62,51.7,59.2z"/>
		<g>
			<path d="M74.2,61.7c-5.2-2.1-7.7-3.7-8.6-6.9c-0.1-0.4-0.2-0.8-0.3-1.2c-0.1-0.3-0.1-0.5-0.1-0.8c0-0.3,0-0.6,0-0.9
				c0-0.5,0.1-1.1,0.2-1.6c0.1-0.7,0.2-1.3,0.2-2c0.1-0.4,0.2-0.7,0.5-1.1c0.2-0.3,0.4-0.4,0.6-0.7c0.2-0.3,0.4-0.4,0.6-0.7
				c0.4-0.4,0.6-1,0.8-1.6c0.2-0.6,0.2-1.2,0.2-1.9c0-0.5,0-1.1-0.2-1.5c-0.1-0.4-0.2-0.4-0.6-0.6v-0.1c0-0.2,0-0.3,0-0.4
				c0-0.9,0-1.9-0.2-2.7c-0.2-1.3-0.8-2.5-1.7-3.4c-0.3-0.4-0.6-0.6-1-0.9c-0.6-0.4-1.2-1-1.7-1.4c-0.4-0.3-0.8-0.6-1.2-0.9
				c-0.6-0.4-1.3-0.7-2.1-0.8c-0.6-0.1-1.4-0.2-2-0.3c-0.6-0.1-1-0.1-1.6,0c-0.7,0.1-1.4,0.4-1.9,0.7c-0.1,0-0.2,0.1-0.2,0.2
				c0.1,0,0.2,0.1,0.2,0.1c0.4,0.2,0.5,0.4,0.2,0.8c-0.2,0.3-0.2,0.4-0.4,0.6c-0.6,0.6-1,1.2-1.6,1.8c-0.2,0.3-0.5,0.5-0.7,0.8
				c-0.4,0.4-0.7,1-1,1.6c-0.1,0.3-0.2,0.5-0.2,0.8c-0.1,0.6-0.1,1.2,0,1.8c0.1,0.8,0.2,1.5,0.2,2.3c0,0.3,0,0.6,0,0.9
				c0,0.1-0.1,0.2-0.1,0.2c-0.1,0-0.1,0-0.2,0c-0.3-0.1-0.4,0-0.4,0.4c0,0.3,0,0.4,0,0.7c0.1,0.4,0.2,1,0.3,1.4
				c0.2,0.9,0.5,1.8,0.7,2.6c0.1,0.3,0.2,0.5,0.2,0.8c0,0.9,0.2,1.8,0.6,2.6c0.1,0.1,0.1,0.2,0.1,0.3c0.2,0.4,0.4,0.9,0.7,1.2
				c0.3,0.4,0.6,0.7,1,1.1c0.2,0.3,0.5,0.6,0.8,0.9c0.4,0.5,0.6,1.1,0.6,1.8c0,0.3,0,0.5,0,0.8c0,0.4,0.1,0.3,0.1,1.1
				c0,0.2,0,0.4-0.1,0.6c6,3.4,9.2,9,9.2,12.1v6.6H83c0,0,0-4,0-5.7C83,69.5,80.2,64.1,74.2,61.7z"/>
		</g>
	</g>
</g>
</svg>
