<?xml version="1.0" encoding="utf-8"?>
<!-- Generator: Adobe Illustrator 22.0.0, SVG Export Plug-In . SVG Version: 6.00 Build 0)  -->
<svg version="1.1" id="Слой_1" xmlns="http://www.w3.org/2000/svg" xmlns:xlink="http://www.w3.org/1999/xlink" x="0px" y="0px"
	 viewBox="0 0 100 125" style="enable-background:new 0 0 100 125;" xml:space="preserve">
<style type="text/css">
	.st0{display:none;}
	.st1{display:inline;fill:#996666;stroke:#FFFFFF;stroke-miterlimit:10;}
</style>
<g class="st0">
	<ellipse class="st1" cx="569.3" cy="511.5" rx="887.8" ry="795.3"/>
</g>
<g>
	<path d="M27.7,85.4V95h11.7v-9.6h0.8h6.6V95h11.7v-9.7c4.1-0.1,7-0.2,8.5-0.4c3.8-0.4,6.9-1.5,9.5-3.3c2.6-1.8,4.6-4.2,6.1-7.2
		c1.5-3,2.2-6.1,2.2-9.3c0-4-1.2-7.6-3.4-10.6c-2.3-3-5.6-5.1-9.9-6.4c3-1.4,5.4-3.4,7.2-6.2c1.8-2.7,2.7-5.8,2.7-9
		c0-3-0.7-5.8-2.2-8.2s-3.2-4.4-5.4-5.9c-2.2-1.5-4.6-2.4-7.3-2.9c-1.9-0.3-4.6-0.5-8-0.6V5H46.8v10.3h-6.6h-0.8V5H27.7v10.3H26
		H15.3V27H26v46.8H15.3v11.7H26L27.7,85.4L27.7,85.4z M40.2,27h8.1c6.7,0,10.7,0.1,12.1,0.2c2.4,0.3,4.1,1.1,5.3,2.5
		c1.2,1.3,1.8,3.1,1.8,5.3c0,2.3-0.7,4.1-2.1,5.5c-1.4,1.4-3.3,2.2-5.7,2.5c-1.3,0.2-4.8,0.2-10.3,0.2h-9.3L40.2,27L40.2,27z
		 M40.2,54.9h11.4c6.4,0,10.6,0.3,12.6,1c1.9,0.7,3.4,1.7,4.4,3.2c1,1.5,1.5,3.3,1.5,5.4c0,2.5-0.7,4.5-2,5.9
		c-1.3,1.5-3,2.4-5.1,2.8c-1.4,0.3-4.6,0.4-9.7,0.4H40.2V54.9z"/>
</g>
</svg>
