<?xml version="1.0" encoding="utf-8"?>
<!-- Generator: Adobe Illustrator 22.0.0, SVG Export Plug-In . SVG Version: 6.00 Build 0)  -->
<svg version="1.1" id="Слой_1" xmlns="http://www.w3.org/2000/svg" xmlns:xlink="http://www.w3.org/1999/xlink" x="0px" y="0px"
	 viewBox="0 0 127 127" style="enable-background:new 0 0 127 127;" xml:space="preserve">
<g>
	<path d="M105.8,77.9l-6-2.2c1.4-3.8,2.1-7.9,2.1-12c0-4.4-0.8-8.7-2.4-12.7l6-2.3c1.8,4.8,2.8,9.9,2.8,15
		C108.3,68.6,107.4,73.3,105.8,77.9z"/>
</g>
<g>
	<path d="M30.6,51.4l-6-2.2c6-16.4,21.8-27.4,39.2-27.4c17.2,0,32.9,10.8,39.1,26.8l-6,2.3c-5.2-13.6-18.5-22.7-33.1-22.7
		C49.1,28.2,35.7,37.5,30.6,51.4z"/>
</g>
<g>
	<path d="M21.8,77.9c-1.6-4.6-2.4-9.3-2.4-14.2c0-5,0.9-9.9,2.6-14.6l6,2.2c-1.5,3.9-2.2,8.1-2.2,12.3c0,4.1,0.7,8.2,2.1,12
		L21.8,77.9z"/>
</g>
<g>
	<path d="M63.8,105.6c-17.6,0-33.4-11.1-39.4-27.7l6-2.2c5,14,18.5,23.4,33.4,23.4s28.3-9.4,33.4-23.4l6,2.2
		C97.3,94.4,81.4,105.6,63.8,105.6z"/>
</g>
<g>
	<path d="M36.4,80.1c-3.4-4.8-5.1-10.5-5.1-16.4c0-6.3,2-12.4,5.9-17.4l9.2,7c-2.3,3-3.5,6.6-3.5,10.4c0,3.5,1.1,6.9,3.1,9.8
		L36.4,80.1z"/>
</g>
<g>
	<path d="M63.8,92.4c-9.4,0-18.2-4.6-23.6-12.3l9.5-6.6c3.2,4.6,8.5,7.4,14.1,7.4s10.9-2.8,14.1-7.4l9.5,6.6
		C82,87.8,73.2,92.4,63.8,92.4z"/>
</g>
<g>
	<path d="M91.2,80.1l-9.5-6.6c2-2.9,3.1-6.3,3.1-9.8c0-3.8-1.2-7.4-3.5-10.4l9.2-7c3.8,5,5.9,11.1,5.9,17.4
		C96.4,69.6,94.6,75.3,91.2,80.1z"/>
</g>
<g>
	<path d="M50.2,53.3l-9.2-7C46.5,39.1,54.8,35,63.9,35c9,0,17.4,4.1,22.9,11.3l-9.2,7c-3.3-4.3-8.3-6.8-13.7-6.8
		C58.4,46.5,53.4,49,50.2,53.3z"/>
</g>
<g transform="translate(0,-952.36218)">
	<path d="M63.5,952.4c-35,0-63.5,28.5-63.5,63.5s28.5,63.5,63.5,63.5s63.5-28.5,63.5-63.5C127,980.7,98.5,952.4,63.5,952.4z
		 M63.5,960.8c30.5,0,55,24.6,55,55c0,30.5-24.6,55-55,55s-55-24.6-55-55S33,960.8,63.5,960.8z"/>
</g>
</svg>
