<?xml version="1.0" encoding="utf-8"?>
<!-- Generator: Adobe Illustrator 22.0.0, SVG Export Plug-In . SVG Version: 6.00 Build 0)  -->
<svg version="1.1" id="Слой_1" xmlns="http://www.w3.org/2000/svg" xmlns:xlink="http://www.w3.org/1999/xlink" x="0px" y="0px"
	 viewBox="0 0 36 48" style="enable-background:new 0 0 36 48;" xml:space="preserve">
<path d="M2,40c0,4.4,3.6,8,8,8h16c4.4,0,8-3.6,8-8V13H2V40z M25,20c0-1.3,2-1.3,2,0v21c0,1.3-2,1.3-2,0V20z M17,20c0-1.3,2-1.3,2,0
	v21c0,1.3-2,1.3-2,0V20z M9,20c0-1.3,2-1.3,2,0v21c0,1.3-2,1.3-2,0V20z M30,5h-5.1C24.4,2.2,22,0,19,0h-2c-3,0-5.4,2.2-5.9,5H6
	c-3.3,0-6,2.7-6,6h36C36,7.7,33.3,5,30,5z M17,2h2c1.9,0,3.4,1.3,3.9,3h-9.7C13.6,3.3,15.1,2,17,2z"/>
</svg>
