<?xml version="1.0" encoding="utf-8"?>
<!-- Generator: Adobe Illustrator 22.0.0, SVG Export Plug-In . SVG Version: 6.00 Build 0)  -->
<svg version="1.1" id="Слой_1" xmlns="http://www.w3.org/2000/svg" xmlns:xlink="http://www.w3.org/1999/xlink" x="0px" y="0px"
	 viewBox="0 0 55 68.8" style="enable-background:new 0 0 55 68.8;" xml:space="preserve">
<g>
	<path d="M35.5,3.1h-32c-0.6,0-1,0.5-1,1v46.8c0,0.5,0.4,1,1,1h32c0.5,0,1-0.5,1-1V4.1C36.5,3.6,36.1,3.1,35.5,3.1z M7.5,9.1
		c0-0.5,0.4-1,1-1h8.8c0.6,0,1,0.5,1,1v8.8c0,0.5-0.4,1-1,1H8.5c-0.6,0-1-0.5-1-1V9.1z M29.5,46.3H7.7c-0.6,0-1-0.4-1-1s0.4-1,1-1
		h21.8c0.6,0,1,0.4,1,1S30.1,46.3,29.5,46.3z M29.5,40.7H7.7c-0.6,0-1-0.4-1-1s0.4-1,1-1h21.8c0.6,0,1,0.4,1,1S30.1,40.7,29.5,40.7z
		 M29.5,35H7.7c-0.6,0-1-0.4-1-1s0.4-1,1-1h21.8c0.6,0,1,0.4,1,1S30.1,35,29.5,35z M29.5,29.4H7.7c-0.6,0-1-0.4-1-1s0.4-1,1-1h21.8
		c0.6,0,1,0.4,1,1S30.1,29.4,29.5,29.4z M29.5,23.7H7.7c-0.6,0-1-0.4-1-1s0.4-1,1-1h21.8c0.6,0,1,0.4,1,1S30.1,23.7,29.5,23.7z
		 M29.5,16.8h-8.3c-0.6,0-1-0.4-1-1s0.4-1,1-1h8.3c0.6,0,1,0.4,1,1S30.1,16.8,29.5,16.8z M29.5,12.2h-8.3c-0.6,0-1-0.4-1-1
		s0.4-1,1-1h8.3c0.6,0,1,0.4,1,1S30.1,12.2,29.5,12.2z"/>
	<path d="M51.5,16.4h-4.1c0-0.1,0-0.2,0-0.2c-0.3-2.1-2-3.6-4.1-3.6c-2.1,0-3.9,1.6-4.1,3.6c-0.1,1.1-0.3,2.3-0.3,3.6h9
		c0-0.5-0.1-0.9-0.1-1.4h2.9v10c0,0.6,0.4,1,1,1s1-0.4,1-1v-11C52.5,16.8,52,16.4,51.5,16.4z"/>
	<path d="M38.7,21.7c-0.1,1.8-0.2,3.7-0.2,5.5c0,11.1,3.7,20,3.8,20.4c0.2,0.4,0.5,0.6,0.9,0.6c0.4,0,0.8-0.3,0.9-0.6
		c0.2-0.4,3.8-9.3,3.8-20.4c0-1.9,0-3.7-0.1-5.5H38.7z"/>
</g>
</svg>
