<?xml version="1.0" encoding="utf-8"?>
<!-- Generator: Adobe Illustrator 22.0.0, SVG Export Plug-In . SVG Version: 6.00 Build 0)  -->
<svg version="1.1"
	 id="Слой_1" xmlns:cc="http://creativecommons.org/ns#" xmlns:dc="http://purl.org/dc/elements/1.1/" xmlns:inkscape="http://www.inkscape.org/namespaces/inkscape" xmlns:rdf="http://www.w3.org/1999/02/22-rdf-syntax-ns#" xmlns:sodipodi="http://sodipodi.sourceforge.net/DTD/sodipodi-0.dtd" xmlns:svg="http://www.w3.org/2000/svg"
	 xmlns="http://www.w3.org/2000/svg" xmlns:xlink="http://www.w3.org/1999/xlink" x="0px" y="0px" viewBox="0 0 90 64.4"
	 style="enable-background:new 0 0 90 64.4;" xml:space="preserve">
<g transform="translate(0,-952.36218)">
	<path d="M77.3,952.4l-4.3,4.3l12.7,12.7l4.3-4.3L77.3,952.4z M70.2,959.4l-40.3,40.3l12.7,12.7l40.3-40.3L70.2,959.4z M27.6,1003.1
		l-1.9,13.6l13.6-1.9L27.6,1003.1L27.6,1003.1z M2,1012.7c-1.1,0-2,0.9-2,2c0,1.1,0.9,2,2,2h18c1.1,0,2-0.9,2-2c0-1.1-0.9-2-2-2H2z"
		/>
</g>
</svg>
