<?xml version="1.0" encoding="utf-8"?>
<!-- Generator: Adobe Illustrator 22.1.0, SVG Export Plug-In . SVG Version: 6.00 Build 0)  -->
<svg version="1.1" id="Layer_1" xmlns="http://www.w3.org/2000/svg" xmlns:xlink="http://www.w3.org/1999/xlink" x="0px" y="0px"
	 viewBox="0 0 126.7 122.9" style="enable-background:new 0 0 126.7 122.9;" xml:space="preserve">
<path d="M52.1,22.9c0,0,0.1,0,0.1-0.1c0,0,0,0,0.1,0c0.1-0.1,0.1-0.2,0.1-0.2c0.2-0.8,0.8-1.5,1.5-1.9c0.4-0.3,0.8-0.1,0.7,0.4
	c-0.1,0.4-0.2,0.8-0.3,1.2c2-0.4,4.1-0.5,6,0.4c2.3,1.1,3.7,3.1,5.4,4.8c0.2,0.2,0.5,0.5,0.7,0.7c0,0,0.1,0.1,0.1,0.1
	c0.5-0.8,0.8-2,1.3-2.9c0.5-0.9,1-1.7,1.6-2.6l0,0l0-0.1c-0.3-2.2-1.1-3.9-2.9-5.5c-1.3-1.1-3.1-1.4-4.7-1.5
	c-6.2-0.2-11.3,3.7-13.7,9.2l-0.2,0.4l0.4-0.3C49.4,24.3,50.7,23.6,52.1,22.9z"/>
<path d="M70.6,47.3c-2.7,0.2-5.5,0.1-8.3-0.4c-0.2,0-1.1-0.1-1.2-0.2c1.2,1.4,3,2.4,4.8,2.6c0.8,0.1,1.7,0.1,2.5-0.3
	c0.7-0.3,1.2-0.8,1.7-1.3C70.3,47.6,70.4,47.4,70.6,47.3z"/>
<path d="M68.3,29.9c0.1,0.2,0.2,0.3,0.4,0.4c2.5,2,6.3,3.4,8.2,6c0.6,0.8,0.9,1.7,1.1,2.7c1.5-1.6,2.5-4,3.3-6c2-5.1-2.8-10-7.9-10
	c-1.3,0-2.4,0.4-3.3,1.6c-1,1.2-1.4,2.8-1.7,4.4C68.2,29.4,68.2,29.7,68.3,29.9z"/>
<path d="M78.5,42c-1.9,2.8-4.4,5.1-6.8,7.4l0,0c-0.6,0.6-1.3,1.2-1.7,1.9c-0.1,0.1-0.1,0.2-0.1,0.3c0,0.1,0.1,0.2,0.1,0.4
	c0.2,0.4,0.3,0.8,0.5,1.2c0.2,0.4,0.4,0.8,0.7,1.1c1.4,1.7,3.6,2.6,5.8,2.3c3-0.4,5.3-3.2,7.3-5.2c1.4-1.4,2.8-2.8,4.2-4.2
	c2.4-2.5,4.8-5.1,4-8.5c-0.1-0.6-0.4-1.3-0.8-1.9c-1.3-2.3-3.6-3.8-6.1-4.4c-0.6-0.1-1.3-0.2-1.8,0c-1.2,0.6-1.9,3.3-2.4,4.4
	C80.4,38.7,79.6,40.4,78.5,42z"/>
<path d="M89.3,49c-2.9,3-5.7,6.5-9.3,8.8c-0.7,0.4-1.7,0.9-1.8,1.8c-0.1,0.6,0.3,1.2,0.6,1.7c1,1.5,2.2,3,3.9,3.4c1,0.2,2,0,2.9-0.3
	c3.6-1.3,7.8-4.2,10.3-7c1.6-1.8,2.7-4.2,2.4-6.6c0-0.1,0-0.2-0.1-0.3c-0.3-1.6-1.3-3-2.4-4.2c-0.5-0.5-1.2-1.3-1.9-1.6
	c-0.9-0.3-1.4,0.8-1.9,1.4C91.2,47,90.3,48,89.3,49z"/>
<path d="M81.6,66.2c-1.2-0.4-2.1-1.2-2.9-2.2c-1.1-1.4-1.7-3.3-2.3-5c-1.8,0-3.6-0.4-5.1-1.2c2.8,6.7,0.7,15.2-4.9,19.8
	c0.8-3.1,3-5.8,3.8-8.9c1.5-5.2-0.8-10.6-3.2-15.4c-0.2-0.5-0.5-1-0.9-1.3c-0.5-0.4-1.2-0.5-1.8-0.7c-2.3-0.6-4.4-2.1-5.6-4.2
	c-0.5-0.8-1-1.9-2-2.1c-0.8-0.2-1.7,0.2-2.5,0.6c-2.9,1.4-6.2,1.7-9.3,0.9c1.6-1.1,3.7-0.9,5.6-1.2c1.1-0.2,2.3-0.6,3.1-1.4
	c0.9-0.9,0.9-1.8,0.9-3c0-0.5,0.2-2,0.4-2.9c0-0.2,0.3-0.2,0.3,0c0.1,0.4,0.3,0.9,0.3,1.6c0.1,1.2,0.2,2,1.2,3
	c0.7,0.7,1.7,1.2,2.7,1.5c3.4,1.2,7.1,1.6,10.8,1.3c1,0.1,4.3-1.8,5.1-2.8c0.9-1.2,1-2.6,0.4-4c-0.5-1.1-1.3-2-2.3-2.7
	c-1.8-1.3-2.7-2.2-4.7-3.1c-2.3-1.3-3.8-3.5-5.6-5.5c-0.2-0.2-0.4-0.5-0.7-0.7c-1.1-1.1-2.4-2.1-4-2.6c-1.6-0.5-3.1-0.2-4.7,0.4
	c-3.5,1.2-6.4,3.5-9.3,5.6c-2.8,2.1-5.6,4.3-8.3,6.6c-1.3,1.1-2.5,2.2-3.2,3.7c-0.9,2-0.8,4.4-0.3,6.6c1.1,5.1,2.9,11.7,4.8,16.5
	c1.4,3.5,3.1,7.8,3.9,11.2c2,9.1,1.9,16.9,0.6,26.6c-0.3,2.3,1.5,4.4,3.9,4.4l15.1,0l15.7,0c2.3,0,4-1.9,3.9-4.1
	c-0.3-4.6-0.2-9.2,0.3-13.8c0,0.1-1.6,0.1-1.8,0.1c-0.6,0-1.2-0.1-1.8-0.2c-1.1-0.2-2.2-0.6-3.2-1.2c2.2-0.5,4.4-0.2,6.6-0.7
	c2.3-0.6,3.9-2.7,5.2-4.7c4.2-6.5,7.6-13.5,10.1-20.8c-2.5,2.1-5.3,3.9-8.2,5.2C85.9,66.2,83.6,66.9,81.6,66.2z"/>
<g transform="translate(0,-952.36218)">
	<path d="M63.3,952.4c-34.9,0-63.3,27.6-63.3,61.5c0,33.9,28.4,61.5,63.3,61.5s63.3-27.6,63.3-61.5
		C126.7,979.8,98.3,952.4,63.3,952.4z M63.3,960.6c30.4,0,54.9,23.8,54.9,53.3c0,29.5-24.5,53.3-54.9,53.3s-54.9-23.8-54.9-53.3
		C8.4,984.3,32.9,960.6,63.3,960.6z"/>
</g>
</svg>
