<?xml version="1.0" encoding="utf-8"?>
<!-- Generator: Adobe Illustrator 22.0.0, SVG Export Plug-In . SVG Version: 6.00 Build 0)  -->
<svg version="1.1"
	 id="Слой_1" xmlns:cc="http://creativecommons.org/ns#" xmlns:dc="http://purl.org/dc/elements/1.1/" xmlns:inkscape="http://www.inkscape.org/namespaces/inkscape" xmlns:rdf="http://www.w3.org/1999/02/22-rdf-syntax-ns#" xmlns:sodipodi="http://sodipodi.sourceforge.net/DTD/sodipodi-0.dtd" xmlns:svg="http://www.w3.org/2000/svg"
	 xmlns="http://www.w3.org/2000/svg" xmlns:xlink="http://www.w3.org/1999/xlink" x="0px" y="0px" viewBox="0 0 90 90"
	 style="enable-background:new 0 0 90 90;" xml:space="preserve">
<path d="M69.9,20.4c-3.5,0-6.4,2.9-6.4,6.5c0,0.9,0.2,1.7,0.5,2.4l-8.3,5.8c-1.1-1.1-2.7-1.7-4.3-1.7c-3.5,0-6.4,2.9-6.4,6.5
	c0,1.6,0.6,3.1,1.6,4.3L35.3,59.9c-0.8-0.3-1.6-0.5-2.5-0.5c-1.7,0-3.2,0.7-4.3,1.7l-8.3-5.8c0.3-0.7,0.5-1.6,0.5-2.4
	c0-3.6-2.9-6.5-6.4-6.5s-6.4,2.9-6.4,6.5s2.9,6.5,6.4,6.5c1.7,0,3.2-0.7,4.3-1.7l8.3,5.8c-0.3,0.7-0.5,1.6-0.5,2.4
	c0,3.6,2.9,6.5,6.4,6.5s6.4-2.9,6.4-6.5c0-1.6-0.6-3.1-1.6-4.3l11.2-15.8c0.8,0.3,1.6,0.5,2.5,0.5c3.5,0,6.4-2.9,6.4-6.5
	c0-0.8-0.2-1.6-0.5-2.4l8.3-5.8c1.1,1,2.6,1.7,4.3,1.7c3.5,0,6.4-2.9,6.4-6.5S73.4,20.4,69.9,20.4z M69.9,30.5 M51.4,43.5
	 M10.8,52.9 M32.8,69.5"/>
<g transform="translate(0,-952.36218)">
	<path d="M45,952.4c-24.8,0-45,20.2-45,45c0,24.8,20.2,45,45,45s45-20.2,45-45C90,972.5,69.8,952.4,45,952.4z M45,958.4
		c21.6,0,39,17.4,39,39s-17.4,39-39,39s-39-17.4-39-39S23.4,958.4,45,958.4z"/>
</g>
</svg>
