<?xml version="1.0" encoding="utf-8"?>
<!-- Generator: Adobe Illustrator 22.0.0, SVG Export Plug-In . SVG Version: 6.00 Build 0)  -->
<svg version="1.1" id="Слой_1" xmlns="http://www.w3.org/2000/svg" xmlns:xlink="http://www.w3.org/1999/xlink" x="0px" y="0px"
	 viewBox="0 0 100 125" style="enable-background:new 0 0 100 125;" xml:space="preserve">
<title>Artboard 1</title>
<path d="M69.7,25.8c-1.7,0-3.1,1.4-3.1,3.1v1.6l-34,15.8c-2.1-5.6-8.4-8.5-14-6.3s-8.5,8.4-6.3,14s8.4,8.5,14,6.3
	c2.9-1.1,5.2-3.4,6.3-6.3l4.8,2.2c-0.7,1.2-1,2.5-1,3.8c0,4.5,4,8.2,8.9,8.2c3.3,0.1,6.4-1.7,8-4.6l13.2,6.1v1.6
	c0,1.7,1.4,3.1,3.1,3.1c1.7,0,3.1-1.4,3.1-3.1V28.8C72.8,27.1,71.4,25.7,69.7,25.8z M45.4,65.2c-3.1,0.1-5.6-2.2-5.8-5.3
	c0-0.9,0.2-1.8,0.7-2.5l10.3,4.8C49.6,64.1,47.6,65.2,45.4,65.2z M88.4,51.8H77v-3.5h11.4L88.4,51.8z M86.6,32.2l-9.6,6l-1.9-3
	l9.6-6L86.6,32.2z M77,61.8l9.6,6l-1.9,3l-9.6-6L77,61.8z"/>
</svg>
