<?xml version="1.0" encoding="utf-8"?>
<!-- Generator: Adobe Illustrator 22.0.0, SVG Export Plug-In . SVG Version: 6.00 Build 0)  -->
<svg version="1.1" id="Слой_1" xmlns="http://www.w3.org/2000/svg" xmlns:xlink="http://www.w3.org/1999/xlink" x="0px" y="0px"
	 viewBox="0 0 100 125" style="enable-background:new 0 0 100 125;" xml:space="preserve">
<style type="text/css">
	.st0{fill:none;}
</style>
<g>
	<rect x="26" y="71.9" class="st0" width="9.4" height="9.4"/>
	<rect x="38.2" y="59.1" class="st0" width="19.4" height="2.9"/>
	<rect x="26" y="36.4" class="st0" width="9.4" height="9.4"/>
	<rect x="26" y="54.2" class="st0" width="9.4" height="9.4"/>
	<rect x="38.2" y="41.4" class="st0" width="19.4" height="2.9"/>
	<rect x="38.2" y="23.6" class="st0" width="19.4" height="2.9"/>
	<rect x="38.2" y="54.2" class="st0" width="35.8" height="2.9"/>
	<rect x="38.2" y="36.4" class="st0" width="35.8" height="2.9"/>
	<rect x="38.2" y="18.6" class="st0" width="35.8" height="2.9"/>
	<rect x="26" y="18.6" class="st0" width="9.4" height="9.4"/>
	<rect x="38.2" y="71.9" class="st0" width="35.8" height="2.9"/>
	<rect x="38.2" y="76.9" class="st0" width="19.4" height="2.9"/>
	<path d="M78,5H22c-2.6,0-4.7,2.1-4.7,4.7v80.6c0,2.6,2.1,4.7,4.7,4.7h56c2.6,0,4.7-2.1,4.7-4.7V9.7C82.7,7.1,80.6,5,78,5z
		 M38.2,23.6h19.4v2.9H38.2V23.6z M38.2,41.4h19.4v2.9H38.2V41.4z M38.2,59.1h19.4V62H38.2V59.1z M35.4,81.4H26v-9.4h9.4V81.4z
		 M35.4,63.6H26v-9.4h9.4V63.6z M35.4,45.8H26v-9.4h9.4V45.8z M35.4,28.1H26v-9.4h9.4V28.1z M57.6,79.8H38.2v-2.9h19.4V79.8z
		 M74,74.8H38.2v-2.9H74V74.8z M74,57.1H38.2v-2.9H74V57.1z M74,39.3H38.2v-2.9H74V39.3z M74,21.5H38.2v-2.9H74V21.5z"/>
</g>
</svg>
