<?xml version="1.0" encoding="utf-8"?>
<!-- Generator: Adobe Illustrator 22.1.0, SVG Export Plug-In . SVG Version: 6.00 Build 0)  -->
<svg version="1.1" id="Layer_1" xmlns="http://www.w3.org/2000/svg" xmlns:xlink="http://www.w3.org/1999/xlink" x="0px" y="0px"
	 viewBox="0 0 127 127" style="enable-background:new 0 0 127 127;" xml:space="preserve">
<path d="M104.4,60.7L39.3,91.1L25.5,61.6c-0.4-0.9-1.5-1.3-2.5-0.9c-0.9,0.4-1.3,1.5-0.9,2.5l14.5,31.2c0.3,0.7,1,1.1,1.7,1.1
	c0.3,0,0.5-0.1,0.8-0.2L106,64.1c0.9-0.4,1.3-1.5,0.9-2.4C106.5,60.7,105.4,60.3,104.4,60.7z"/>
<path d="M100.7,69.3L35.6,99.7L21.8,70.2c-0.4-0.9-1.5-1.3-2.5-0.9c-0.9,0.4-1.3,1.5-0.9,2.5L33,102.9c0.3,0.7,1,1.1,1.7,1.1
	c0.3,0,0.5-0.1,0.8-0.2l66.8-31.2c0.9-0.4,1.3-1.5,0.9-2.5C102.8,69.3,101.7,68.9,100.7,69.3z"/>
<path d="M108.2,54.8L93.7,23.6c-0.1-0.1-0.2-0.3-0.3-0.3c-0.2-0.1-0.3-0.1-0.5,0L26,54.4c-0.3,0.1-0.4,0.5-0.3,0.8l14.5,31.2
	c0.1,0.2,0.3,0.4,0.6,0.4c0.1,0,0.2,0,0.3-0.1l66.8-31.2C108.2,55.4,108.4,55.1,108.2,54.8z M73.2,68.4c-7.4,3.4-16.2,0.2-19.6-7.1
	c-3.4-7.4-0.2-16.2,7.1-19.6c7.4-3.4,16.2-0.2,19.6,7.1C83.8,56.1,80.6,64.9,73.2,68.4z"/>
<path d="M67.5,53c-2.2,0.2-3.2,0.1-3.6-0.7c-0.3-0.6-0.1-1.5,1.3-2.1c1.6-0.7,2.9-0.7,3.6-0.7l-0.5-2.8c-0.9,0-2,0.1-3.6,0.8l-0.9-2
	l-2.2,1l1,2.1c-2.2,1.6-2.8,3.8-1.9,5.7c1,2.2,3.1,2.5,5.9,2.2c1.9-0.2,2.9,0,3.3,0.8c0.4,0.9-0.2,1.8-1.5,2.4
	c-1.4,0.7-3,0.8-4.1,0.7l0.5,2.9c1.1,0.1,2.7-0.2,4.2-0.8l1,2.1l2.2-1l-1.1-2.3c2.3-1.6,3-4,2-6C72.3,53.4,70.6,52.7,67.5,53z"/>
<g transform="translate(0,-952.36218)">
	<path d="M63.5,952.4c-35,0-63.5,28.5-63.5,63.5s28.5,63.5,63.5,63.5s63.5-28.5,63.5-63.5C127,980.7,98.5,952.4,63.5,952.4z
		 M63.5,960.8c30.5,0,55,24.6,55,55c0,30.5-24.6,55-55,55s-55-24.6-55-55C8.5,985.4,33,960.8,63.5,960.8z"/>
</g>
</svg>
