<?xml version="1.0" encoding="utf-8"?>
<!-- Generator: Adobe Illustrator 22.0.0, SVG Export Plug-In . SVG Version: 6.00 Build 0)  -->
<svg version="1.1" id="Слой_1" xmlns="http://www.w3.org/2000/svg" xmlns:xlink="http://www.w3.org/1999/xlink" x="0px" y="0px"
	 viewBox="0 0 192 175.7" style="enable-background:new 0 0 192 175.7;" xml:space="preserve">
<g>
	<g>
		<path d="M88.9,50.7c1.4-1.4,3.5-1.7,5.2-0.9l10.3-10.3l-4.4-4.3c-0.9-0.9-2.1-0.9-3,0L78.3,54h9.3C87.6,52.8,88,51.7,88.9,50.7z"
			/>
		<path d="M93.1,54h9.3c0-1.2,0.4-2.4,1.3-3.3c1.6-1.6,4-1.7,5.7-0.5c0.2,0.1,0.4,0.3,0.6,0.5c0.9,0.9,1.4,2.1,1.3,3.3h9l5.1-5.1
			c0.9-0.9,0.9-2.1,0-3l-10.6-10.6c-0.9-0.9-2.1-0.9-3,0l-5.9,5.9L95.7,51.3L93.1,54z"/>
		<path d="M141.8,76.3h-13.9c-1.6,0-2.9,1.3-2.9,2.9v10.9c0,1.6,1.3,2.9,2.9,2.9h14c1.6,0,2.9-1.3,2.9-2.9V79
			C144.7,77.5,143.4,76.3,141.8,76.3z M137.2,86.8c-0.6,0.6-1.5,1-2.4,1s-1.7-0.3-2.4-1c-0.6-0.6-1-1.5-1-2.4c0-0.9,0.3-1.7,1-2.4
			c1.3-1.3,3.5-1.3,4.7,0c0.6,0.6,1,1.5,1,2.4C138.2,85.5,137.9,86.3,137.2,86.8z"/>
		<path d="M122.9,89.9V79c0-2.8,2.2-5,5-5h7.1V62.9c0-3.7-3-6.6-6.6-6.6H61.7c-3.6,0-6.6,3-6.6,6.6v43.4c0,3.7,3,6.6,6.6,6.6h66.5
			c3.6,0,6.6-3,6.6-6.6V95h-7.1C125.1,95,122.9,92.7,122.9,89.9z M72.6,106.1h-8.6c-1.2,0-2.1-1-2.1-2.1v-8.6c0-1.2,1-2.1,2.1-2.1
			s2.1,1,2.1,2.1v6.4h6.4c1.2,0,2.1,1,2.1,2.1C74.8,105.1,73.8,106.1,72.6,106.1z"/>
	</g>
</g>
<g transform="translate(0,-952.36218)">
	<path d="M97.8,968.8c-35,0-63.5,28.5-63.5,63.5c0,35,28.5,63.5,63.5,63.5s63.5-28.5,63.5-63.5C161.3,997.1,132.8,968.8,97.8,968.8z
		 M97.8,977.2c30.5,0,55,24.6,55,55c0,30.5-24.6,55-55,55s-55-24.6-55-55C42.8,1001.8,67.3,977.2,97.8,977.2z"/>
</g>
</svg>
