<?xml version="1.0" encoding="utf-8"?>
<!-- Generator: Adobe Illustrator 22.0.0, SVG Export Plug-In . SVG Version: 6.00 Build 0)  -->
<svg version="1.1" id="Слой_1" xmlns="http://www.w3.org/2000/svg" xmlns:xlink="http://www.w3.org/1999/xlink" x="0px" y="0px"
	 viewBox="0 0 82 82" style="enable-background:new 0 0 82 82;" xml:space="preserve">
<g>
	<path d="M35.5,71c8.7,0,16.7-3.2,22.9-8.4l18.5,18.5c0.6,0.6,1.4,0.9,2.1,0.9s1.5-0.3,2.1-0.9c1.2-1.2,1.2-3.1,0-4.2L62.6,58.4
		c5.2-6.2,8.4-14.2,8.4-22.9C71,15.9,55.1,0,35.5,0S0,15.9,0,35.5S15.9,71,35.5,71z M35.5,6C51.7,6,65,19.2,65,35.5
		C65,51.7,51.7,65,35.5,65C19.2,65,6,51.7,6,35.5C6,19.2,19.2,6,35.5,6z"/>
	<path d="M35.5,16C46.2,16,55,24.7,55,35.5c0,1.7,1.3,3,3,3s3-1.3,3-3C61,21.4,49.5,10,35.5,10c-1.7,0-3,1.3-3,3S33.8,16,35.5,16z"
		/>
</g>
</svg>
