<?xml version="1.0" encoding="utf-8"?>
<!-- Generator: Adobe Illustrator 22.0.0, SVG Export Plug-In . SVG Version: 6.00 Build 0)  -->
<svg version="1.1" id="Слой_1" xmlns="http://www.w3.org/2000/svg" xmlns:xlink="http://www.w3.org/1999/xlink" x="0px" y="0px"
	 viewBox="0 0 62 62.2" style="enable-background:new 0 0 62 62.2;" xml:space="preserve">
<g>
	<g transform="translate(50 50) scale(0.69 0.69) rotate(0) translate(-50 -50)">
		<path d="M55.1,12.3c-0.5-1.8-1.3-3.7-2.3-5.7c1.9-2.6,4.1-5.2,6-8.1c0.6-0.8,0.6-1.7,0-2.6c-2.4-3.5-6.4-7.1-9.7-9.9
			c-0.8-0.8-1.9-0.8-2.8-0.1l-8.4,6.2c-1.6-0.8-3.5-1.5-5.2-2.2l-1.6-10.6c-0.1-1.1-0.9-1.8-2.1-1.8H16c-1.2,0-2,0.7-2.2,1.7
			c-0.8,3.4-1.2,7.3-1.6,10.7C10.4-9.5,8.6-8.8,7-7.8L-1.1-14c-0.5-0.4-1.2-0.7-1.6-0.7c-2,0-9.8,8.7-11.3,10.6
			c-0.8,1-0.7,1.6,0.1,2.7c2.1,2.8,4.2,5.4,6.2,8.1c-0.9,1.9-1.6,3.4-2.2,5.4l-11,1.6c-0.9,0.2-1.6,1.3-1.6,2.3v12.9
			c0,1,0.7,1.9,1.7,2.1l10.6,1.7c0.5,1.8,1.4,3.7,2.3,5.6c-1.9,2.7-4,5.2-6,8.1c-0.6,0.9-0.5,1.8,0,2.6c2.5,3.5,6.4,7.1,9.7,10
			c0.9,0.8,1.9,0.8,2.8,0.2L7,53c1.7,0.8,3.5,1.5,5.2,2.1l1.6,10.7c0.1,0.9,1,1.8,2.2,1.8h13c1.2,0,1.8-0.7,2.1-1.7
			c0.9-3.4,1.3-7.3,1.7-10.7c1.8-0.6,3.6-1.4,5.3-2.2l8.1,6.3c0.5,0.4,1.1,0.5,1.6,0.5c1.9,0,9.8-8.8,11.3-10.7
			c0.6-0.8,0.5-1.6-0.2-2.6c-2.1-2.9-4.2-5.5-6.2-8.4c0.9-1.6,1.6-3.2,2.3-5.2l10.7-1.6c1-0.1,1.7-1.2,1.7-2V16.1
			c0-0.9-0.7-1.9-1.7-2.2L55.1,12.3z M22.4,37.5c-8.2,0-14.9-6.7-14.9-14.9c0-8.4,6.7-15.1,14.9-15.1c8.3,0,15,6.7,15,15.1
			C37.4,30.8,30.7,37.5,22.4,37.5z"/>
	</g>
</g>
</svg>
