<?xml version="1.0" encoding="utf-8"?>
<!-- Generator: Adobe Illustrator 22.0.0, SVG Export Plug-In . SVG Version: 6.00 Build 0)  -->
<svg version="1.1" id="Слой_1" xmlns="http://www.w3.org/2000/svg" xmlns:xlink="http://www.w3.org/1999/xlink" x="0px" y="0px"
	 viewBox="0 0 100 125" style="enable-background:new 0 0 100 125;" xml:space="preserve">
<path d="M83.3,59.5c-0.7,2.6-1.7,5-3,7.3l4.8,11.7L78.6,85l-11.7-4.8c-2.3,1.3-4.7,2.3-7.3,3l-5,11.8h-9.2l-4.9-11.7
	c-2.6-0.7-5-1.7-7.3-3l-11.7,4.8L15,78.6l4.8-11.7c-1.3-2.3-2.3-4.7-3-7.3L5,54.6v-9.2l11.7-4.9c0.7-2.6,1.7-5,3-7.3l-4.8-11.7
	l6.5-6.5l11.7,4.8c2.3-1.3,4.7-2.3,7.3-3l5-11.8h9.2l4.9,11.7c2.6,0.7,5,1.7,7.3,3l11.7-4.8l6.5,6.5l-4.8,11.7
	c1.3,2.3,2.3,4.7,3,7.3l11.8,5v9.2L83.3,59.5z M63.8,50c0-7.6-6.2-13.8-13.8-13.8S36.2,42.4,36.2,50S42.4,63.8,50,63.8
	S63.8,57.6,63.8,50z"/>
</svg>
