<?xml version="1.0" encoding="utf-8"?>
<!-- Generator: Adobe Illustrator 22.0.0, SVG Export Plug-In . SVG Version: 6.00 Build 0)  -->
<svg version="1.1" id="Слой_1" xmlns="http://www.w3.org/2000/svg" xmlns:xlink="http://www.w3.org/1999/xlink" x="0px" y="0px"
	 viewBox="0 0 90 89" style="enable-background:new 0 0 90 89;" xml:space="preserve">
<g transform="matrix( 1, 0, 0, 1, 0,0) ">
	<g>
		<g id="a">
			<path d="M72.1,25L48.5,1.4c-1-1-2.1-1.4-3.5-1.4s-2.5,0.5-3.5,1.4L17.9,25l7.1,7l15-15v53h10V17l15,15L72.1,25 M80,69v10H10V69H0
				v15c0,1.4,0.5,2.6,1.4,3.6c1,1,2.2,1.4,3.6,1.4h80c1.4,0,2.5-0.5,3.5-1.4c1-1,1.5-2.2,1.5-3.6V69H80z"/>
		</g>
	</g>
</g>
</svg>
