<?xml version="1.0" encoding="utf-8"?>
<!-- Generator: Adobe Illustrator 22.0.0, SVG Export Plug-In . SVG Version: 6.00 Build 0)  -->
<svg version="1.1" id="Слой_1" xmlns="http://www.w3.org/2000/svg" xmlns:xlink="http://www.w3.org/1999/xlink" x="0px" y="0px"
	 viewBox="0 0 90 90" style="enable-background:new 0 0 90 90;" xml:space="preserve">
<g>
	<path d="M45,0C20.2,0,0,20.2,0,45s20.2,45,45,45s45-20.2,45-45S69.8,0,45,0z M74.7,70.2v-3.5c0-2.6-1.7-4.8-4-5.5
		c-1.7-0.5-3.4-1.3-5.1-2.1c-2.7-1.4-6.7-3-9.8-3H53c0-0.4,0-0.8,0-1.3c0-1.6,0.2-3.2,0.5-4.6l-3.2,1.9c-1.3,0.7-2.7,1.1-4.1,1.1
		s-2.8-0.4-4.1-1.1l-3-1.8c0.3,1.4,0.5,2.9,0.5,4.5c0,0.4,0,0.8,0,1.3h-2.7c-3.1,0-7.1,1.6-9.8,3c-1.6,0.8-3.3,1.5-5.1,2.1
		c-2.3,0.7-4,2.9-4,5.5V73C10.6,65.9,6,56,6,45C6,23.5,23.5,6,45,6s39,17.5,39,39C84,54.6,80.5,63.4,74.7,70.2z"/>
	<path d="M59.3,27.7c-0.1,0-0.1,0-0.2,0V27L59,24.7l0,0c0,0,0,0,0-0.1c0-0.4,0-0.7-0.1-1.1c1-2,1.1-4.3,0.5-6.5
		c-0.2-0.7-0.5-1.4-1-1.9s-1.1-0.8-1.8-1.2C54.9,13,53,12.2,51,12.2c-1.7,0-3.4,0.6-5.2,0.8c-1.7,0.2-3.8-0.3-4.5-1.7
		c-0.9,0.3-1.4,1.2-1.4,2c-1.5-0.8-2.1-2.7-1.2-4.1c-1.5,0.6-2.6,1.9-2.7,3.3c-0.6-1-0.6-2.3-0.1-3.4c-1.9,2-3.9,4.3-3.3,6.9
		c0.4,1.6,1.8,3.2,1.8,4.7c-0.3,0.7-0.5,1.5-0.7,2.2c-0.2,0.6-0.2,1.2-0.3,1.7l-0.1,2.2v0.8h-0.1c-1.4,0-2.5,1.8-2.5,3.9
		c0,1.2,0.3,2.2,0.8,2.9c-0.2,0.3-0.3,0.6-0.3,1c0,1.1,0.9,1.9,1.9,1.9c0.3,0,0.7-0.1,0.9-0.3l2,7.4c0.5,1.9,1.7,3.5,3.4,4.5
		l3.1,1.8c1.1,0.6,2.3,1,3.6,1c1.2,0,2.5-0.3,3.6-1l3.2-1.8c1.6-1,2.8-2.5,3.4-4.4l2.1-7.4c0.3,0.2,0.6,0.3,1,0.3
		c1.1,0,1.9-0.9,1.9-1.9c0-0.4-0.1-0.7-0.3-1c0.5-0.7,0.8-1.8,0.8-2.9C61.8,29.5,60.7,27.7,59.3,27.7z"/>
</g>
</svg>
