<?xml version="1.0" encoding="utf-8"?>
<!-- Generator: Adobe Illustrator 22.0.0, SVG Export Plug-In . SVG Version: 6.00 Build 0)  -->
<svg version="1.1" id="Слой_1" xmlns="http://www.w3.org/2000/svg" xmlns:xlink="http://www.w3.org/1999/xlink" x="0px" y="0px"
	 viewBox="0 0 76.2 89" style="enable-background:new 0 0 76.2 89;" xml:space="preserve">
<g>
	<path d="M38.1,50.9C17.1,50.9,0,67.9,0,89h5.1c0-18.2,14.8-33,33-33c18.2,0,33,14.8,33,33h5.1C76.2,67.9,59.2,50.9,38.1,50.9z"/>
	<path d="M38.1,49.1c13.6,0,24.6-11,24.6-24.6C62.7,11,51.7,0,38.1,0S13.6,11,13.6,24.6C13.6,38.1,24.5,49.1,38.1,49.1z M38.1,5.1
		c10.8,0,19.5,8.7,19.5,19.5c0,10.8-8.7,19.5-19.5,19.5c-10.8,0-19.5-8.7-19.5-19.5C18.7,13.8,27.4,5.1,38.1,5.1z"/>
</g>
</svg>
